<svg width="200" height="50" viewBox="0 0 200 50" fill="none" xmlns="http://www.w3.org/2000/svg">
  <path d="M12.5 5H25C32.1797 5 38 10.8203 38 18V32C38 39.1797 32.1797 45 25 45H12.5C5.32031 45 0 39.1797 0 32V18C0 10.8203 5.32031 5 12.5 5Z" fill="url(#paint0_linear)"/>
  <path d="M12 16L20 24L28 16" stroke="white" stroke-width="3" stroke-linecap="round" stroke-linejoin="round"/>
  <path d="M20 24V36" stroke="white" stroke-width="3" stroke-linecap="round" stroke-linejoin="round"/>
  <path d="M12 34L20 26L28 34" stroke="white" stroke-width="3" stroke-linecap="round" stroke-linejoin="round"/>
  <path d="M51.75 38V12H62.9062C65.4688 12 67.5859 12.5156 69.2578 13.5469C70.9297 14.5703 72.1641 15.9609 72.9609 17.7188C73.7578 19.4688 74.1562 21.4453 74.1562 23.6484V26.3672C74.1562 28.5703 73.7578 30.5469 72.9609 32.2969C72.1641 34.0469 70.9219 35.4375 69.2344 36.4688C67.5469 37.4922 65.4141 38 62.8359 38H51.75ZM57.0469 16.4375V33.5781H62.7422C64.6641 33.5781 66.1406 33.0234 67.1719 31.9141C68.2031 30.8047 68.7344 29.1641 68.7656 26.9922V23.6328C68.7656 21.3828 68.2656 19.7031 67.2656 18.5938C66.2656 17.4844 64.8125 16.9297 62.9062 16.9297H57.0469V16.4375Z" fill="#2563EB"/>
  <path d="M92.3125 38.4219C89.4688 38.4219 87.1094 37.4922 85.2344 35.6328C83.3594 33.7734 82.4219 31.3203 82.4219 28.2734V27.4688C82.4219 25.4375 82.8281 23.6328 83.6406 22.0547C84.4531 20.4766 85.6094 19.2578 87.1094 18.3984C88.6094 17.5391 90.2891 17.1094 92.1484 17.1094C94.8672 17.1094 97.0078 18.0078 98.5703 19.8047C100.133 21.6016 100.914 24.125 100.914 27.375V29.5938H87.6719C87.7969 31.1562 88.3438 32.4141 89.3125 33.3672C90.2812 34.3203 91.5078 34.7969 92.9922 34.7969C95.1328 34.7969 96.8672 33.9688 98.1953 32.3125L100.539 34.7266C99.6797 35.8984 98.5547 36.8047 97.1641 37.4453C95.7734 38.0859 94.1406 38.4219 92.3125 38.4219ZM92.1328 20.75C90.9141 20.75 89.9141 21.1719 89.1328 22.0156C88.3516 22.8594 87.8516 24.0547 87.6328 25.6016H96.3438V25.1875C96.2188 23.6875 95.7734 22.5156 95.0078 21.6719C94.2422 21.0547 93.2891 20.75 92.1328 20.75Z" fill="#2563EB"/>
  <path d="M119.25 38.4219C116.406 38.4219 114.047 37.4922 112.172 35.6328C110.297 33.7734 109.359 31.3203 109.359 28.2734V27.4688C109.359 25.4375 109.766 23.6328 110.578 22.0547C111.391 20.4766 112.547 19.2578 114.047 18.3984C115.547 17.5391 117.227 17.1094 119.086 17.1094C121.805 17.1094 123.945 18.0078 125.508 19.8047C127.07 21.6016 127.852 24.125 127.852 27.375V29.5938H114.609C114.734 31.1562 115.281 32.4141 116.25 33.3672C117.219 34.3203 118.445 34.7969 119.93 34.7969C122.07 34.7969 123.805 33.9688 125.133 32.3125L127.477 34.7266C126.617 35.8984 125.492 36.8047 124.102 37.4453C122.711 38.0859 121.078 38.4219 119.25 38.4219ZM119.07 20.75C117.852 20.75 116.852 21.1719 116.07 22.0156C115.289 22.8594 114.789 24.0547 114.57 25.6016H123.281V25.1875C123.156 23.6875 122.711 22.5156 121.945 21.6719C121.18 21.0547 120.227 20.75 119.07 20.75Z" fill="#2563EB"/>
  <path d="M140.039 38H134.945V8H140.039V38Z" fill="#2563EB"/>
  <path d="M148.641 38H143.547V8H148.641V38Z" fill="#2563EB"/>
  <path d="M177.789 27.8125C177.789 30.9375 177.07 33.4141 175.633 35.2422C174.195 37.0703 172.258 38.0078 169.82 38.0547C167.57 38.0547 165.758 37.2422 164.383 35.6172V46.5H159.289V17.5312H163.977L164.18 20.0312C165.555 18.0938 167.414 17.125 169.758 17.125C172.258 17.125 174.219 18.0391 175.641 19.8672C177.062 21.6953 177.789 24.2812 177.82 27.625V27.8125ZM172.727 27.4688C172.727 25.5 172.32 23.9531 171.508 22.8281C170.695 21.7031 169.555 21.1406 168.086 21.1406C166.211 21.1406 164.883 21.9219 164.102 23.4844V31.8594C164.93 33.4219 166.273 34.2031 168.133 34.2031C169.539 34.2031 170.656 33.6562 171.484 32.5625C172.312 31.4688 172.727 29.7812 172.727 27.5V27.4688Z" fill="#2563EB"/>
  <path d="M181.242 27.5C181.242 25.4062 181.648 23.5469 182.461 21.9219C183.273 20.2969 184.461 19.0547 186.023 18.1953C187.586 17.3359 189.391 16.9062 191.43 16.9062C194.398 16.9062 196.812 17.7969 198.672 19.5781C200.531 21.3594 201.539 23.7344 201.695 26.7031L201.727 28.0312C201.727 30.1406 201.328 32.0078 200.531 33.6328C199.734 35.2578 198.555 36.4922 196.992 37.3359C195.43 38.1797 193.609 38.6016 191.539 38.6016C188.383 38.6016 185.852 37.6562 183.945 35.7656C182.039 33.875 181.086 31.3438 181.086 28.1719V27.5ZM186.18 27.8281C186.18 29.7969 186.617 31.3281 187.492 32.4219C188.367 33.5156 189.758 34.0625 190.766 34.0625C193.266 34.0625 194.773 32.6406 195.289 29.7969C195.43 29.1094 195.5 28.2031 195.5 27.0781C195.5 25.1562 195.062 23.6406 194.188 22.5312C193.312 21.4219 192.398 20.8672 190.766 20.8672C189.695 20.8672 188.664 21.5 187.773 21.9844C186.711 22.8438 186.211 24.9375 186.18 27.8281Z" fill="#2563EB"/>
  <defs>
    <linearGradient id="paint0_linear" x1="0" y1="5" x2="38" y2="45" gradientUnits="userSpaceOnUse">
      <stop stop-color="#2563EB"/>
      <stop offset="1" stop-color="#8B5CF6"/>
    </linearGradient>
  </defs>
</svg> 